<svg width="32" height="31" viewBox="0 0 32 31" fill="none" xmlns="http://www.w3.org/2000/svg">
<g id="layer1">
<g id="g968">
<path id="path824" fill-rule="evenodd" clip-rule="evenodd" d="M1.27091 21.3887L0.8169 23.0498C0.646368 23.5813 0.409395 24.3631 0.283158 25.0563C0.0478119 25.6782 -0.0422779 26.3456 0.0197709 27.0076C0.0818196 27.6697 0.294365 28.3088 0.64117 28.8761C0.987975 29.4434 1.45986 29.9239 2.02079 30.281C2.58171 30.6381 3.21682 30.8622 3.87761 30.9363C4.49109 31.0249 5.18429 31.0227 5.96164 30.9075L9.53838 30.4136C10.4376 30.2896 11.175 29.6407 11.4142 28.7659L13.8725 19.7299L1.27091 21.3887Z" fill="url(#paint0_linear_9_129)"/>
<path id="path826" d="M5.75687 21.8162C1.98967 22.4009 1.21674 25.2445 1.21674 25.2445L4.82448 11.9829L23.6804 9.43158L21.1092 18.771C20.9763 19.2715 20.5555 19.6568 20.0328 19.7366L19.9287 19.7521L5.65056 21.8339L5.75687 21.814V21.8162Z" fill="url(#paint1_linear_9_129)"/>
<path id="path828" d="M5.75687 21.8162C1.98967 22.4009 1.21674 25.2445 1.21674 25.2445L4.82448 11.9829L23.6804 9.43158L21.1092 18.771C20.9763 19.2715 20.5555 19.6568 20.0328 19.7366L19.9287 19.7521L5.65056 21.8339L5.75687 21.814V21.8162Z" fill="url(#paint2_linear_9_129)" fill-opacity="0.8"/>
<path id="path830" d="M7.89622 13.356L28.7698 10.2732C29.011 10.2392 29.2368 10.135 29.4192 9.97354C29.6015 9.81206 29.7323 9.60046 29.7952 9.36514L31.9501 1.5694C32.0052 1.37276 32.0107 1.16552 31.9662 0.966211C31.9216 0.766907 31.8284 0.58175 31.6948 0.427297C31.5611 0.272845 31.3913 0.153912 31.2005 0.0811344C31.0097 0.00835645 30.8038 -0.0159979 30.6013 0.0102491L10.6845 2.9558C9.63076 3.12617 8.64819 3.59586 7.85384 4.30892C7.0595 5.02198 6.48688 5.94836 6.20419 6.97769L3.33173 17.3868C3.90755 15.2828 4.26411 14.0116 7.89622 13.356Z" fill="url(#paint3_linear_9_129)"/>
<path id="path832" d="M7.89622 13.356L28.7698 10.2732C29.011 10.2392 29.2368 10.135 29.4192 9.97354C29.6015 9.81206 29.7323 9.60046 29.7952 9.36514L31.9501 1.5694C32.0052 1.37276 32.0107 1.16552 31.9662 0.966211C31.9216 0.766907 31.8284 0.58175 31.6948 0.427297C31.5611 0.272845 31.3913 0.153912 31.2005 0.0811344C31.0097 0.00835645 30.8038 -0.0159979 30.6013 0.0102491L10.6845 2.9558C9.63076 3.12617 8.64819 3.59586 7.85384 4.30892C7.0595 5.02198 6.48688 5.94836 6.20419 6.97769L3.33173 17.3868C3.90755 15.2828 4.26411 14.0116 7.89622 13.356Z" fill="url(#paint4_linear_9_129)"/>
<path id="path834" d="M7.89622 13.356L28.7698 10.2732C29.011 10.2392 29.2368 10.135 29.4192 9.97354C29.6015 9.81206 29.7323 9.60046 29.7952 9.36514L31.9501 1.5694C32.0052 1.37276 32.0107 1.16552 31.9662 0.966211C31.9216 0.766907 31.8284 0.58175 31.6948 0.427297C31.5611 0.272845 31.3913 0.153912 31.2005 0.0811344C31.0097 0.00835645 30.8038 -0.0159979 30.6013 0.0102491L10.6845 2.9558C9.63076 3.12617 8.64819 3.59586 7.85384 4.30892C7.0595 5.02198 6.48688 5.94836 6.20419 6.97769L3.33173 17.3868C3.90755 15.2828 4.26411 14.0116 7.89622 13.356Z" fill="url(#paint5_linear_9_129)" fill-opacity="0.4"/>
<path id="path836" d="M7.89627 13.356C4.8732 13.9053 4.12242 14.8775 3.6219 16.4035L1.21674 25.2445C1.21674 25.2445 1.98524 22.4319 5.70814 21.8295L19.9287 19.7565L20.035 19.7388C20.2881 19.6995 20.5244 19.5876 20.7151 19.4165C20.9058 19.2455 21.0427 19.0228 21.1092 18.7754L23.2242 11.0926L7.89627 13.356Z" fill="url(#paint6_linear_9_129)"/>
<path id="path838" d="M7.89627 13.356C4.8732 13.9053 4.12242 14.8775 3.6219 16.4035L1.21674 25.2445C1.21674 25.2445 1.98524 22.4319 5.70814 21.8295L19.9287 19.7565L20.035 19.7388C20.2881 19.6995 20.5244 19.5876 20.7151 19.4165C20.9058 19.2455 21.0427 19.0228 21.1092 18.7754L23.2242 11.0926L7.89627 13.356Z" fill="url(#paint7_linear_9_129)" fill-opacity="0.2"/>
<path id="path840" fill-rule="evenodd" clip-rule="evenodd" d="M8.70814 21.8295C5.56326 22.3388 4.529 24.4207 4.28317 25.0563C4.04741 25.6783 3.95699 26.346 4.01884 27.0083C4.08068 27.6706 4.29315 28.31 4.64 28.8776C4.98684 29.4452 5.45888 29.926 6.02003 30.2832C6.58117 30.6404 7.21656 30.8645 7.87762 30.9385C8.4911 31.0271 9.1843 31.0227 9.96166 30.9075L13.5384 30.4136C14.4376 30.2896 15.1751 29.6407 15.4142 28.7659L17.6555 20.5272L8.70814 21.8295Z" fill="url(#paint8_linear_9_129)"/>
</g>
</g>
<defs>
<linearGradient id="paint0_linear_9_129" x1="6.93611" y1="30.9983" x2="6.93611" y2="19.7277" gradientUnits="userSpaceOnUse">
<stop offset="0.056" stop-color="#2AAC94"/>
<stop offset="0.155" stop-color="#239C87"/>
<stop offset="0.372" stop-color="#177E71"/>
<stop offset="0.588" stop-color="#0E6961"/>
<stop offset="0.799" stop-color="#095D57"/>
<stop offset="1" stop-color="#085954"/>
</linearGradient>
<linearGradient id="paint1_linear_9_129" x1="22.1789" y1="22.8216" x2="11.2958" y2="10.9841" gradientUnits="userSpaceOnUse">
<stop offset="0.042" stop-color="#ABE88E"/>
<stop offset="0.549" stop-color="#2AAA92"/>
<stop offset="0.906" stop-color="#117865"/>
</linearGradient>
<linearGradient id="paint2_linear_9_129" x1="-4.56584" y1="22.2458" x2="5.79009" y2="18.7134" gradientUnits="userSpaceOnUse">
<stop stop-color="#6AD6F9"/>
<stop offset="1" stop-color="#6AD6F9" stop-opacity="0"/>
</linearGradient>
<linearGradient id="paint3_linear_9_129" x1="3.33394" y1="8.6963" x2="30.9025" y2="8.6963" gradientUnits="userSpaceOnUse">
<stop offset="0.043" stop-color="#25FFD4"/>
<stop offset="0.874" stop-color="#55DDB9"/>
</linearGradient>
<linearGradient id="paint4_linear_9_129" x1="3.33394" y1="4.84272" x2="28.1696" y2="16.3747" gradientUnits="userSpaceOnUse">
<stop stop-color="#6AD6F9"/>
<stop offset="0.23" stop-color="#60E9D0"/>
<stop offset="0.651" stop-color="#6DE9BB"/>
<stop offset="0.994" stop-color="#ABE88E"/>
</linearGradient>
<linearGradient id="paint5_linear_9_129" x1="5.6328" y1="6.99984" x2="19.1358" y2="9.98747" gradientUnits="userSpaceOnUse">
<stop stop-color="white" stop-opacity="0"/>
<stop offset="0.459" stop-color="white"/>
<stop offset="1" stop-color="white" stop-opacity="0"/>
</linearGradient>
<linearGradient id="paint6_linear_9_129" x1="10.1088" y1="18.5672" x2="10.4277" y2="9.09718" gradientUnits="userSpaceOnUse">
<stop offset="0.205" stop-color="#063D3B" stop-opacity="0"/>
<stop offset="0.586" stop-color="#063D3B" stop-opacity="0.237"/>
<stop offset="0.872" stop-color="#063D3B" stop-opacity="0.75"/>
</linearGradient>
<linearGradient id="paint7_linear_9_129" x1="0.076166" y1="17.626" x2="11.617" y2="19.7964" gradientUnits="userSpaceOnUse">
<stop stop-color="white" stop-opacity="0"/>
<stop offset="0.459" stop-color="white"/>
<stop offset="1" stop-color="white" stop-opacity="0"/>
</linearGradient>
<linearGradient id="paint8_linear_9_129" x1="11.4123" y1="27.8756" x2="9.16215" y2="16.8663" gradientUnits="userSpaceOnUse">
<stop offset="0.064" stop-color="#063D3B" stop-opacity="0"/>
<stop offset="0.17" stop-color="#063D3B" stop-opacity="0.135"/>
<stop offset="0.562" stop-color="#063D3B" stop-opacity="0.599"/>
<stop offset="0.85" stop-color="#063D3B" stop-opacity="0.9"/>
<stop offset="1" stop-color="#063D3B"/>
</linearGradient>
</defs>
</svg>
